<svg width="54" height="54" viewBox="0 0 54 54" fill="none" xmlns="http://www.w3.org/2000/svg">
  <path d="M10.2927 0H4.14798e-05V14.9432H10.2927V0Z" fill="#F4652F"/>
  <path d="M4.14798e-05 53.664H10.2927V38.7092H0L4.14798e-05 53.664Z" fill="#F4652F"/>
  <path d="M43.355 22.3632C48.9513 23.9508 53.0319 29.125 53.0319 35.2989C53.0319 42.7662 47.0276 48.7637 39.6824 48.7637H27.1001V53.664H16.8074V38.7092H37.7587C39.6241 38.7092 41.1398 37.1804 41.1398 35.2989C41.1398 33.4173 39.6241 31.8885 37.7587 31.8885H0V21.7752H28.6647C30.5301 21.7752 32.0458 20.2465 32.0458 18.3649C32.0458 16.4834 30.5301 14.9546 28.6647 14.9546L27.1001 14.9432H16.8074V0H27.1001V4.90011H30.5884C37.9336 4.90011 43.9379 10.9563 43.9379 18.3649C43.9379 19.7761 43.7048 21.1285 43.355 22.3632Z" fill="#F4652F"/>
</svg>
